<?xml version="1.0" encoding="utf-8"?>
<!-- Generator: Adobe Illustrator 16.0.0, SVG Export Plug-In . SVG Version: 6.00 Build 0)  -->
<!DOCTYPE svg PUBLIC "-//W3C//DTD SVG 1.1//EN" "http://www.w3.org/Graphics/SVG/1.1/DTD/svg11.dtd">
<svg version="1.1" id="Layer_1" xmlns="http://www.w3.org/2000/svg" xmlns:xlink="http://www.w3.org/1999/xlink" x="0px" y="0px"
	 width="410px" height="200px" viewBox="0 0 410 200" enable-background="new 0 0 410 200" xml:space="preserve">
<g>
	<g>
		<path fill="#FFFFFF" d="M73.427,120.667l7.583-9.084c5.25,4.332,10.75,7.083,17.417,7.083c5.25,0,8.417-2.083,8.417-5.5v-0.168
			c0-3.249-2-4.914-11.75-7.416c-11.75-2.999-19.333-6.249-19.333-17.833v-0.166C75.76,77,84.26,70,96.177,70
			c8.5,0,15.75,2.667,21.667,7.416l-6.667,9.667c-5.167-3.583-10.25-5.75-15.167-5.75c-4.916,0-7.5,2.25-7.5,5.083v0.167
			c0,3.834,2.5,5.083,12.583,7.667c11.833,3.083,18.5,7.333,18.5,17.5v0.167c0,11.582-8.833,18.084-21.417,18.084
			C89.344,130,80.427,126.916,73.427,120.667z"/>
		<path fill="#FFFFFF" d="M130.755,70.833h12.833V117.5h29.084v11.666h-41.917V70.833z"/>
		<path fill="#FFFFFF" d="M182.334,70.833h26.667c7.417,0,13.166,2.083,17,5.917c3.25,3.25,5.001,7.833,5.001,13.333v0.167
			c0,9.417-5.085,15.333-12.502,18.083l14.251,20.834h-15L205.25,110.5h-10.082v18.666h-12.834V70.833z M208.168,99.166
			c6.249,0,9.832-3.333,9.832-8.25v-0.167c0-5.5-3.832-8.333-10.082-8.333h-12.75v16.75H208.168z"/>
		<path fill="#FFFFFF" d="M256.328,105.582h-15.083V94.083h15.083v-15h11.832v15h15.086v11.499H268.16v15.001h-11.832V105.582z"/>
		<path fill="#FFFFFF" d="M309.658,105.582h-15.085V94.083h15.085v-15h11.832v15h15.083v11.499H321.49v15.001h-11.832V105.582z"/>
	</g>
	<g>
		<path fill="#FFFFFF" d="M349,25h-19v5h19V25L349,25z M311,25h-19v5h19V25L311,25z M273,25h-19v5h19V25L273,25z M235,25h-19v5h19
			V25L235,25z M197,25h-19v5h19V25L197,25z M159,25h-19v5h19V25L159,25z M121,25h-19v5h19V25L121,25z M83,25H64v5h19V25L83,25z
			 M45,25H26v5h19V25L45,25z M28,41h-5v19h5V41L28,41z M28,79h-5v19h5V79L28,79z M28,117h-5v19h5V117L28,117z M28,155h-5v19h5V155
			L28,155z M60,170H41v5h19V170L60,170z M98,170H79v5h19V170L98,170z M136,170h-19v5h19V170L136,170z M174,170h-19v5h19V170L174,170
			z M212,170h-19v5h19V170L212,170z M250,170h-19v5h19V170L250,170z M288,170h-19v5h19V170L288,170z M326,170h-19v5h19V170L326,170z
			 M364,170h-19v5h19V170L364,170z M387,160h-5v15h1.271l0,0h-1.36h1.36l0,0H387V160L387,160z M387,122h-5v19h5V122L387,122z
			 M387,84h-5v19h5V84L387,84z M387,46h-5v19h5V46L387,46z M387,25h-19v5h19V25L387,25z"/>
	</g>
	<g>
		<path fill="#FFFFFF" d="M401,9v182H9V9H401 M410,0H0v200h410V0L410,0z"/>
	</g>
</g>
</svg>
